<svg xmlns="http://www.w3.org/2000/svg" viewBox="0 0 2540 1347"><svg width="1230" height="1347" viewBox="0 0 1230 1347" fill="none" xmlns="http://www.w3.org/2000/svg" x="0"><g filter="url(#filter0_di_374_3)"><path d="M437.5 631.5C169.56 170.5 742 10.5002 1129.5 77.5C564.5 225 676.557 489.064 742 585C1069.43 1065 742 1185 100.5 1246.5C553 995 586 887 437.5 631.5Z" fill="url(#paint0_linear_374_3)" /></g><defs><filter id="filter0_di_374_3" x="0.5" y="-37.1018" width="1229" height="1383.6" filterUnits="userSpaceOnUse" color-interpolation-filters="sRGB"><feFlood flood-opacity="0" result="BackgroundImageFix" /><feColorMatrix in="SourceAlpha" type="matrix" values="0 0 0 0 0 0 0 0 0 0 0 0 0 0 0 0 0 0 127 0" result="hardAlpha" /><feOffset /><feGaussianBlur stdDeviation="50" /><feComposite in2="hardAlpha" operator="out" /><feColorMatrix type="matrix" values="0 0 0 0 0.807843 0 0 0 0 0.156863 0 0 0 0 0.027451 0 0 0 0.5 0" /><feBlend mode="normal" in2="BackgroundImageFix" result="effect1_dropShadow_374_3" /><feBlend mode="normal" in="SourceGraphic" in2="effect1_dropShadow_374_3" result="shape" /><feColorMatrix in="SourceAlpha" type="matrix" values="0 0 0 0 0 0 0 0 0 0 0 0 0 0 0 0 0 0 127 0" result="hardAlpha" /><feOffset /><feGaussianBlur stdDeviation="21" /><feComposite in2="hardAlpha" operator="arithmetic" k2="-1" k3="1" /><feColorMatrix type="matrix" values="0 0 0 0 1 0 0 0 0 1 0 0 0 0 1 0 0 0 1 0" /><feBlend mode="normal" in2="shape" result="effect2_innerShadow_374_3" /></filter><linearGradient id="paint0_linear_374_3" x1="890" y1="76" x2="741.507" y2="1244.01" gradientUnits="userSpaceOnUse"><stop stop-color="#DD6302" /><stop offset="0.344791" stop-color="#CE2807" /><stop offset="0.709375" stop-color="#D02F06" /><stop offset="1" stop-color="#DD6302" /></linearGradient></defs></svg><svg width="1310" height="1310" viewBox="0 0 1310 1310" fill="none" xmlns="http://www.w3.org/2000/svg" x="1230"><g filter="url(#filter0_di_398_2)"><path d="M1190 655C1190 950.472 950.472 1190 655 1190C359.528 1190 120 950.472 120 655C120 359.528 359.528 120 655 120C950.472 120 1190 359.528 1190 655ZM392.757 655C392.757 799.833 510.167 917.243 655 917.243C799.833 917.243 917.243 799.833 917.243 655C917.243 510.167 799.833 392.757 655 392.757C510.167 392.757 392.757 510.167 392.757 655Z" fill="url(#paint0_radial_398_2)" /></g><defs><filter id="filter0_di_398_2" x="0" y="0" width="1310" height="1310" filterUnits="userSpaceOnUse" color-interpolation-filters="sRGB"><feFlood flood-opacity="0" result="BackgroundImageFix" /><feColorMatrix in="SourceAlpha" type="matrix" values="0 0 0 0 0 0 0 0 0 0 0 0 0 0 0 0 0 0 127 0" result="hardAlpha" /><feOffset /><feGaussianBlur stdDeviation="60" /><feComposite in2="hardAlpha" operator="out" /><feColorMatrix type="matrix" values="0 0 0 0 0.807843 0 0 0 0 0.156863 0 0 0 0 0.027451 0 0 0 0.5 0" /><feBlend mode="normal" in2="BackgroundImageFix" result="effect1_dropShadow_398_2" /><feBlend mode="normal" in="SourceGraphic" in2="effect1_dropShadow_398_2" result="shape" /><feColorMatrix in="SourceAlpha" type="matrix" values="0 0 0 0 0 0 0 0 0 0 0 0 0 0 0 0 0 0 127 0" result="hardAlpha" /><feOffset /><feGaussianBlur stdDeviation="40" /><feComposite in2="hardAlpha" operator="arithmetic" k2="-1" k3="1" /><feColorMatrix type="matrix" values="0 0 0 0 1 0 0 0 0 1 0 0 0 0 1 0 0 0 1 0" /><feBlend mode="normal" in2="shape" result="effect2_innerShadow_398_2" /></filter><radialGradient id="paint0_radial_398_2" cx="0" cy="0" r="1" gradientUnits="userSpaceOnUse" gradientTransform="translate(655 655) rotate(90) scale(535 535)"><stop offset="0.516666" stop-color="#DD6302" /><stop offset="0.615625" stop-color="#CE2807" /><stop offset="0.829166" stop-color="#CE2807" /><stop offset="1" stop-color="#DD6302" /></radialGradient></defs></svg></svg>